0
SECTION
2
HEADER
9
$ACADVER
1
AC1015
0
ENDSEC
0
SECTION
2
TABLES
0
TABLE
2
LAYER
70
5
0
LAYER
2
Geometry
70
0
62
7
6
CONTINUOUS
370
25
0
LAYER
2
Annotations
70
0
62
8
6
CONTINUOUS
370
18
0
LAYER
2
Curves
70
0
62
3
6
CONTINUOUS
370
25
0
LAYER
2
Construction
70
0
62
2
6
DASHED
370
13
0
LAYER
2
Dimensions
70
0
62
5
6
CONTINUOUS
370
18
0
ENDTAB
0
ENDSEC
0
SECTION
2
ENTITIES
0
TEXT
8
Annotations
10
0
20
80
30
0
40
6
1
TEXT: single line
50
0
0
TEXT
8
Annotations
10
0
20
65
30
0
40
5
1
TEXT rotated 20 degrees
50
20
0
MTEXT
8
Annotations
10
0
20
35
30
0
40
5
41
120
50
0
1
MTEXT first line\Psecond line\Pthird line
0
LINE
8
Geometry
10
0
20
20
30
0
11
120
21
20
31
0
0
ENDSEC
0
EOF
