0
SECTION
2
HEADER
9
$ACADVER
1
AC1015
0
ENDSEC
0
SECTION
2
TABLES
0
TABLE
2
LAYER
70
5
0
LAYER
2
Geometry
70
0
62
7
6
CONTINUOUS
370
25
0
LAYER
2
Annotations
70
0
62
8
6
CONTINUOUS
370
18
0
LAYER
2
Curves
70
0
62
3
6
CONTINUOUS
370
25
0
LAYER
2
Construction
70
0
62
2
6
DASHED
370
13
0
LAYER
2
Dimensions
70
0
62
5
6
CONTINUOUS
370
18
0
ENDTAB
0
ENDSEC
0
SECTION
2
ENTITIES
0
CIRCLE
8
Curves
10
30
20
40
30
0
40
20
0
ARC
8
Curves
10
90
20
40
30
0
40
25
50
20
51
160
0
ELLIPSE
8
Curves
10
155
20
40
30
0
11
35
21
0
31
0
40
0.45
41
0
42
6.283185307179586
0
ELLIPSE
8
Curves
10
230
20
40
30
0
11
30
21
15
31
0
40
0.35
41
0
42
3.141592653589793
0
TEXT
8
Annotations
10
0
20
85
30
0
40
5
1
03 Circle, arc, full ellipse, partial ellipse
50
0
0
ENDSEC
0
EOF
