0
SECTION
2
HEADER
9
$ACADVER
1
AC1015
0
ENDSEC
0
SECTION
2
TABLES
0
TABLE
2
LAYER
70
5
0
LAYER
2
Geometry
70
0
62
7
6
CONTINUOUS
370
25
0
LAYER
2
Annotations
70
0
62
8
6
CONTINUOUS
370
18
0
LAYER
2
Curves
70
0
62
3
6
CONTINUOUS
370
25
0
LAYER
2
Construction
70
0
62
2
6
DASHED
370
13
0
LAYER
2
Dimensions
70
0
62
5
6
CONTINUOUS
370
18
0
ENDTAB
0
ENDSEC
0
SECTION
2
ENTITIES
0
LWPOLYLINE
8
Geometry
90
4
70
0
10
0
20
0
10
60
20
0
10
90
20
35
10
20
20
55
0
LWPOLYLINE
8
Geometry
90
5
70
1
10
120
20
0
10
180
20
0
10
195
20
50
10
150
20
80
10
105
20
50
0
LWPOLYLINE
8
Curves
90
4
70
1
10
230
20
0
42
0.41421356237
10
290
20
0
10
290
20
50
42
0.41421356237
10
230
20
50
0
TEXT
8
Annotations
10
0
20
95
30
0
40
5
1
04 Open polyline, closed polygon, LWPOLYLINE bulge arcs
50
0
0
ENDSEC
0
EOF
