0
SECTION
2
HEADER
9
$ACADVER
1
AC1015
0
ENDSEC
0
SECTION
2
TABLES
0
TABLE
2
LAYER
70
5
0
LAYER
2
Geometry
70
0
62
7
6
CONTINUOUS
370
25
0
LAYER
2
Annotations
70
0
62
8
6
CONTINUOUS
370
18
0
LAYER
2
Curves
70
0
62
3
6
CONTINUOUS
370
25
0
LAYER
2
Construction
70
0
62
2
6
DASHED
370
13
0
LAYER
2
Dimensions
70
0
62
5
6
CONTINUOUS
370
18
0
ENDTAB
0
ENDSEC
0
SECTION
2
ENTITIES
0
LINE
8
Geometry
10
20
20
30
30
0
11
120
21
30
31
0
0
LINE
8
Dimensions
10
20
20
30
30
0
11
20
21
10
31
0
0
LINE
8
Dimensions
10
120
20
30
30
0
11
120
21
10
31
0
0
LINE
8
Dimensions
10
20
20
10
30
0
11
120
21
10
31
0
0
LINE
8
Dimensions
10
20
20
10
30
0
11
28
21
14
31
0
0
LINE
8
Dimensions
10
20
20
10
30
0
11
28
21
6
31
0
0
LINE
8
Dimensions
10
120
20
10
30
0
11
112
21
14
31
0
0
LINE
8
Dimensions
10
120
20
10
30
0
11
112
21
6
31
0
0
TEXT
8
Dimensions
10
62
20
14
30
0
40
4
1
100.00
50
0
0
TEXT
8
Annotations
10
0
20
55
30
0
40
5
1
05 Dimensions exported as graphical LINE/TEXT primitives
50
0
0
ENDSEC
0
EOF
