0
SECTION
2
HEADER
9
$ACADVER
1
AC1015
0
ENDSEC
0
SECTION
2
TABLES
0
TABLE
2
LAYER
70
5
0
LAYER
2
Geometry
70
0
62
7
6
CONTINUOUS
370
25
0
LAYER
2
Annotations
70
0
62
8
6
CONTINUOUS
370
18
0
LAYER
2
Curves
70
0
62
3
6
CONTINUOUS
370
25
0
LAYER
2
Construction
70
0
62
2
6
DASHED
370
13
0
LAYER
2
Dimensions
70
0
62
5
6
CONTINUOUS
370
18
0
ENDTAB
0
ENDSEC
0
SECTION
2
ENTITIES
0
SPLINE
8
Curves
70
8
71
3
72
0
73
4
74
0
10
0
20
0
30
0
10
40
20
70
30
0
10
85
20
-35
30
0
10
130
20
40
30
0
0
SPLINE
8
Curves
70
11
71
3
72
0
73
4
74
0
10
170
20
0
30
0
10
210
20
60
30
0
10
250
20
0
30
0
10
210
20
-45
30
0
0
TEXT
8
Annotations
10
0
20
90
30
0
40
5
1
06 SPLINE control points, open and closed
50
0
0
ENDSEC
0
EOF
