0
SECTION
2
HEADER
9
$ACADVER
1
AC1015
0
ENDSEC
0
SECTION
2
TABLES
0
TABLE
2
LTYPE
70
4
0
LTYPE
2
CONTINUOUS
70
0
3
CONTINUOUS
72
65
73
0
40
0
0
LTYPE
2
DASHED
70
0
3
DASHED
72
65
73
2
40
0.75
49
0.5
49
-0.25
0
LTYPE
2
DASHDOT
70
0
3
DASHDOT
72
65
73
4
40
1.0
49
0.5
49
-0.25
49
0
49
-0.25
0
ENDTAB
0
TABLE
2
LAYER
70
5
0
LAYER
2
0
70
0
62
7
6
CONTINUOUS
370
25
0
LAYER
2
Walls
70
0
62
5
6
CONTINUOUS
370
50
0
LAYER
2
Annotations
70
0
62
8
6
CONTINUOUS
370
18
0
LAYER
2
Axis
70
0
62
1
6
DASHDOT
370
13
0
LAYER
2
Construction
70
0
62
2
6
DASHED
370
13
0
ENDTAB
0
ENDSEC
0
SECTION
2
ENTITIES
0
LINE
8
Walls
62
256
6
BYLAYER
10
0
20
0
30
0
11
120
21
0
31
0
0
LINE
8
Walls
62
256
6
BYLAYER
10
120
20
0
30
0
11
120
21
70
31
0
0
LINE
8
Walls
62
256
6
BYLAYER
10
120
20
70
30
0
11
0
21
70
31
0
0
LINE
8
Walls
62
256
6
BYLAYER
10
0
20
70
30
0
11
0
21
0
31
0
0
CIRCLE
8
Walls
62
256
6
BYLAYER
10
30
20
35
30
0
40
12
0
ARC
8
Walls
62
256
6
BYLAYER
10
65
20
35
30
0
40
16
50
0
51
180
0
ELLIPSE
8
Walls
10
95
20
35
30
0
11
18
21
0
31
0
40
0.5
41
0
42
6.283185307179586
0
LWPOLYLINE
8
Construction
90
4
70
0
10
10
20
10
10
30
20
55
10
60
20
20
10
90
20
60
0
SPLINE
8
Axis
70
8
71
3
72
8
73
4
74
0
40
0
40
0
40
0
40
0
40
1
40
1
40
1
40
1
10
10
20
80
30
0
10
40
20
105
30
0
10
75
20
78
30
0
10
115
20
100
30
0
0
MTEXT
8
Annotations
10
0
20
-15
30
0
40
3.0
41
100
71
1
1
Mixed OpenCad2D DXF compatibility smoke sample
7
STANDARD
0
ENDSEC
0
EOF
