<?xml version="1.0" encoding="UTF-8"?>
<svg xmlns="http://www.w3.org/2000/svg" viewBox="0 0 1302 1022" width="1302" height="1022">
  <title>house_plan.opencad2d.json</title>
  <desc>Generated by OpenCad2D SVG exporter.</desc>
  <rect x="0" y="0" width="1302" height="1022" fill="#1E1E1E" />
  <line x1="20" y1="70" x2="40" y2="20" stroke="#FFFFFF" stroke-width="0.25" fill="none" vector-effect="non-scaling-stroke" />
  <line x1="50" y1="60" x2="40" y2="20" stroke="#FFFFFF" stroke-width="0.25" fill="none" vector-effect="non-scaling-stroke" />
  <line x1="200" y1="990" x2="200" y2="910" stroke="#78AAF0" stroke-width="0.25" fill="none" vector-effect="non-scaling-stroke" />
  <path d="M 200 910 A 80 80 0 0 1 280 990" stroke="#78AAF0" stroke-width="0.25" fill="none" vector-effect="non-scaling-stroke" />
  <line x1="340" y1="540" x2="340" y2="460" stroke="#78AAF0" stroke-width="0.25" fill="none" vector-effect="non-scaling-stroke" />
  <path d="M 260 540 A 80 80 0 0 1 340 460" stroke="#78AAF0" stroke-width="0.25" fill="none" vector-effect="non-scaling-stroke" />
  <line x1="790" y1="540" x2="790" y2="620" stroke="#78AAF0" stroke-width="0.25" fill="none" vector-effect="non-scaling-stroke" />
  <path d="M 790 620 A 80 80 0 0 1 710 540" stroke="#78AAF0" stroke-width="0.25" fill="none" vector-effect="non-scaling-stroke" />
  <line x1="1020" y1="180" x2="1100" y2="180" stroke="#78AAF0" stroke-width="0.25" fill="none" vector-effect="non-scaling-stroke" />
  <path d="M 1100 180 A 80 80 0 0 1 1020 260" stroke="#78AAF0" stroke-width="0.25" fill="none" vector-effect="non-scaling-stroke" />
  <line x1="1020" y1="640" x2="1100" y2="640" stroke="#78AAF0" stroke-width="0.25" fill="none" vector-effect="non-scaling-stroke" />
  <path d="M 1100 640 A 80 80 0 0 1 1020 720" stroke="#78AAF0" stroke-width="0.25" fill="none" vector-effect="non-scaling-stroke" />
  <polygon points="120,140 470,140 470,240 120,240" stroke="#78C878" stroke-width="0.18" fill="none" vector-effect="non-scaling-stroke" />
  <polygon points="120,260 220,260 220,370 120,370" stroke="#78C878" stroke-width="0.18" fill="none" vector-effect="non-scaling-stroke" />
  <polygon points="260,290 430,290 430,390 260,390" stroke="#78C878" stroke-width="0.18" fill="none" vector-effect="non-scaling-stroke" />
  <polygon points="130,490 530,490 530,530 130,530" stroke="#78C878" stroke-width="0.18" fill="none" vector-effect="non-scaling-stroke" />
  <polygon points="650,110 990,110 990,155 650,155" stroke="#78C878" stroke-width="0.18" fill="none" vector-effect="non-scaling-stroke" />
  <polygon points="650,110 695,110 695,300 650,300" stroke="#78C878" stroke-width="0.18" fill="none" vector-effect="non-scaling-stroke" />
  <polygon points="730,330 950,330 950,450 730,450" stroke="#78C878" stroke-width="0.18" fill="none" vector-effect="non-scaling-stroke" />
  <circle cx="820" cy="132" r="28" stroke="#78C878" stroke-width="0.18" fill="none" vector-effect="non-scaling-stroke" />
  <circle cx="680" cy="132" r="18" stroke="#78C878" stroke-width="0.18" fill="none" vector-effect="non-scaling-stroke" />
  <polygon points="1035,110 1245,110 1245,280 1035,280" stroke="#78C878" stroke-width="0.18" fill="none" vector-effect="non-scaling-stroke" />
  <polygon points="1048,123 1232,123 1232,267 1048,267" stroke="#78C878" stroke-width="0.18" fill="none" vector-effect="non-scaling-stroke" />
  <polygon points="1135,320 1235,320 1235,450 1135,450" stroke="#78C878" stroke-width="0.18" fill="none" vector-effect="non-scaling-stroke" />
  <circle cx="1185" cy="395" r="38" stroke="#78C878" stroke-width="0.18" fill="none" vector-effect="non-scaling-stroke" />
  <circle cx="1085" cy="320" r="28" stroke="#78C878" stroke-width="0.18" fill="none" vector-effect="non-scaling-stroke" />
  <polygon points="150,630 490,630 490,800 150,800" stroke="#78C878" stroke-width="0.18" fill="none" vector-effect="non-scaling-stroke" />
  <circle cx="210" cy="608" r="22" stroke="#78C878" stroke-width="0.18" fill="none" vector-effect="non-scaling-stroke" />
  <circle cx="320" cy="608" r="22" stroke="#78C878" stroke-width="0.18" fill="none" vector-effect="non-scaling-stroke" />
  <circle cx="430" cy="608" r="22" stroke="#78C878" stroke-width="0.18" fill="none" vector-effect="non-scaling-stroke" />
  <circle cx="210" cy="822" r="22" stroke="#78C878" stroke-width="0.18" fill="none" vector-effect="non-scaling-stroke" />
  <circle cx="320" cy="822" r="22" stroke="#78C878" stroke-width="0.18" fill="none" vector-effect="non-scaling-stroke" />
  <circle cx="430" cy="822" r="22" stroke="#78C878" stroke-width="0.18" fill="none" vector-effect="non-scaling-stroke" />
  <circle cx="128" cy="690" r="22" stroke="#78C878" stroke-width="0.18" fill="none" vector-effect="non-scaling-stroke" />
  <circle cx="128" cy="740" r="22" stroke="#78C878" stroke-width="0.18" fill="none" vector-effect="non-scaling-stroke" />
  <polygon points="640,580 1000,580 1000,860 640,860" stroke="#78C878" stroke-width="0.18" fill="none" vector-effect="non-scaling-stroke" />
  <polygon points="640,580 1000,580 1000,615 640,615" stroke="#78C878" stroke-width="0.18" fill="none" vector-effect="non-scaling-stroke" />
  <polygon points="640,580 690,580 690,650 640,650" stroke="#78C878" stroke-width="0.18" fill="none" vector-effect="non-scaling-stroke" />
  <polygon points="950,580 1000,580 1000,650 950,650" stroke="#78C878" stroke-width="0.18" fill="none" vector-effect="non-scaling-stroke" />
  <polygon points="640,880 1000,880 1000,960 640,960" stroke="#78C878" stroke-width="0.18" fill="none" vector-effect="non-scaling-stroke" />
  <polygon points="1040,570 1240,570 1240,780 1040,780" stroke="#78C878" stroke-width="0.18" fill="none" vector-effect="non-scaling-stroke" />
  <polygon points="1040,570 1240,570 1240,605 1040,605" stroke="#78C878" stroke-width="0.18" fill="none" vector-effect="non-scaling-stroke" />
  <polygon points="1040,810 1240,810 1240,960 1040,960" stroke="#78C878" stroke-width="0.18" fill="none" vector-effect="non-scaling-stroke" />
  <line x1="70" y1="90" x2="170" y2="90" stroke="#D4B896" stroke-width="0.5" fill="none" vector-effect="non-scaling-stroke" />
  <line x1="310" y1="90" x2="720" y2="90" stroke="#D4B896" stroke-width="0.5" fill="none" vector-effect="non-scaling-stroke" />
  <line x1="850" y1="90" x2="1080" y2="90" stroke="#D4B896" stroke-width="0.5" fill="none" vector-effect="non-scaling-stroke" />
  <line x1="1190" y1="90" x2="1270" y2="90" stroke="#D4B896" stroke-width="0.5" fill="none" vector-effect="non-scaling-stroke" />
  <line x1="70" y1="90" x2="70" y2="200" stroke="#D4B896" stroke-width="0.5" fill="none" vector-effect="non-scaling-stroke" />
  <line x1="70" y1="340" x2="70" y2="990" stroke="#D4B896" stroke-width="0.5" fill="none" vector-effect="non-scaling-stroke" />
  <line x1="1270" y1="90" x2="1270" y2="700" stroke="#D4B896" stroke-width="0.5" fill="none" vector-effect="non-scaling-stroke" />
  <line x1="1270" y1="810" x2="1270" y2="990" stroke="#D4B896" stroke-width="0.5" fill="none" vector-effect="non-scaling-stroke" />
  <line x1="70" y1="990" x2="200" y2="990" stroke="#D4B896" stroke-width="0.5" fill="none" vector-effect="non-scaling-stroke" />
  <line x1="280" y1="990" x2="420" y2="990" stroke="#D4B896" stroke-width="0.5" fill="none" vector-effect="non-scaling-stroke" />
  <line x1="550" y1="990" x2="770" y2="990" stroke="#D4B896" stroke-width="0.5" fill="none" vector-effect="non-scaling-stroke" />
  <line x1="900" y1="990" x2="1270" y2="990" stroke="#D4B896" stroke-width="0.5" fill="none" vector-effect="non-scaling-stroke" />
  <line x1="70" y1="540" x2="260" y2="540" stroke="#D4B896" stroke-width="0.5" fill="none" vector-effect="non-scaling-stroke" />
  <line x1="340" y1="540" x2="620" y2="540" stroke="#D4B896" stroke-width="0.5" fill="none" vector-effect="non-scaling-stroke" />
  <line x1="620" y1="540" x2="710" y2="540" stroke="#D4B896" stroke-width="0.5" fill="none" vector-effect="non-scaling-stroke" />
  <line x1="790" y1="540" x2="1020" y2="540" stroke="#D4B896" stroke-width="0.5" fill="none" vector-effect="non-scaling-stroke" />
  <line x1="1020" y1="540" x2="1270" y2="540" stroke="#D4B896" stroke-width="0.5" fill="none" vector-effect="non-scaling-stroke" />
  <line x1="620" y1="90" x2="620" y2="990" stroke="#D4B896" stroke-width="0.5" fill="none" vector-effect="non-scaling-stroke" />
  <line x1="1020" y1="90" x2="1020" y2="180" stroke="#D4B896" stroke-width="0.5" fill="none" vector-effect="non-scaling-stroke" />
  <line x1="1020" y1="260" x2="1020" y2="640" stroke="#D4B896" stroke-width="0.5" fill="none" vector-effect="non-scaling-stroke" />
  <line x1="1020" y1="720" x2="1020" y2="990" stroke="#D4B896" stroke-width="0.5" fill="none" vector-effect="non-scaling-stroke" />
  <polygon points="170,78 310,78 310,102 170,102" stroke="#A8D8EA" stroke-width="0.25" fill="none" vector-effect="non-scaling-stroke" />
  <polygon points="58,200 82,200 82,340 58,340" stroke="#A8D8EA" stroke-width="0.25" fill="none" vector-effect="non-scaling-stroke" />
  <polygon points="720,78 850,78 850,102 720,102" stroke="#A8D8EA" stroke-width="0.25" fill="none" vector-effect="non-scaling-stroke" />
  <polygon points="1080,78 1190,78 1190,102 1080,102" stroke="#A8D8EA" stroke-width="0.25" fill="none" vector-effect="non-scaling-stroke" />
  <polygon points="420,978 550,978 550,1002 420,1002" stroke="#A8D8EA" stroke-width="0.25" fill="none" vector-effect="non-scaling-stroke" />
  <polygon points="770,978 900,978 900,1002 770,1002" stroke="#A8D8EA" stroke-width="0.25" fill="none" vector-effect="non-scaling-stroke" />
  <polygon points="1258,700 1282,700 1282,810 1258,810" stroke="#A8D8EA" stroke-width="0.25" fill="none" vector-effect="non-scaling-stroke" />
</svg>
